<svg width="164" height="164" viewBox="0 0 164 164" fill="none" xmlns="http://www.w3.org/2000/svg">
<path opacity="0.57" d="M81.8125 0C36.633 0 0 36.633 0 81.8125C0 126.992 36.633 163.625 81.8125 163.625C126.992 163.625 163.625 126.992 163.625 81.8125C163.625 36.633 126.992 0 81.8125 0ZM108.128 83.0726L68.244 112.09C68.0254 112.248 67.7677 112.341 67.4992 112.362C67.2307 112.382 66.9618 112.327 66.7221 112.205C66.4824 112.082 66.2812 111.896 66.1405 111.666C65.9999 111.437 65.9252 111.173 65.9248 110.903V52.9042C65.9239 52.6344 65.9978 52.3696 66.1381 52.1392C66.2785 51.9089 66.48 51.7218 66.7201 51.5989C66.9603 51.476 67.2298 51.422 67.4988 51.4429C67.7678 51.4637 68.0257 51.5587 68.244 51.7172L108.128 80.7168C108.316 80.8501 108.47 81.0266 108.576 81.2315C108.682 81.4365 108.737 81.6639 108.737 81.8947C108.737 82.1255 108.682 82.3529 108.576 82.5578C108.47 82.7628 108.316 82.9393 108.128 83.0726V83.0726Z" fill="white"/>
</svg>
