<svg width="214" height="214" viewBox="0 0 214 214" fill="none" xmlns="http://www.w3.org/2000/svg">
<g style="mix-blend-mode:screen" opacity="0.64" filter="url(#filter0_f_1_260)">
<path d="M150.51 125.689C148.129 124.485 136.533 118.836 134.366 118.029C132.199 117.259 130.625 116.855 129.046 119.233C127.502 121.551 122.954 126.857 121.565 128.404C120.175 129.951 118.81 130.07 116.464 129.021C114.083 127.817 106.478 125.345 97.4466 117.259C90.3928 110.992 85.6962 103.274 84.3009 100.896C82.9116 98.5486 84.1466 97.2207 85.3222 96.0468C86.4028 94.9679 87.7031 93.3316 88.9084 91.9088C90.0544 90.486 90.4225 89.5315 91.2597 87.9901C92.0316 86.3243 91.6337 85.026 91.0459 83.8521C90.4581 82.6783 85.7259 71.0409 83.7487 66.4049C81.8606 61.8044 79.8834 62.3913 78.4287 62.3913C77.0691 62.2668 75.4897 62.2668 73.9162 62.2668C72.3428 62.2668 69.7719 62.8538 67.6047 65.1065C65.4375 67.4838 59.3159 73.1632 59.3159 84.6525C59.3159 96.1713 67.7887 107.317 68.9644 108.983C70.1697 110.524 85.6309 134.238 109.351 144.428C115.01 146.806 119.403 148.229 122.835 149.402C128.494 151.193 133.659 150.944 137.738 150.357C142.251 149.616 151.715 144.642 153.698 139.087C155.711 133.496 155.711 128.866 155.123 127.817C154.536 126.738 152.992 126.151 150.611 125.102L150.51 125.689ZM107.493 183.923H107.368C93.3259 183.923 79.4441 180.123 67.3197 173.021L64.4756 171.326L34.7881 179.044L42.7681 150.203L40.8503 147.239C33.0096 134.791 28.85 120.385 28.8506 105.68C28.8506 62.6403 64.1372 27.5324 107.552 27.5324C128.583 27.5324 148.313 35.7136 163.157 50.5346C170.479 57.7589 176.288 66.3668 180.243 75.8563C184.198 85.3457 186.222 95.5266 186.194 105.805C186.135 148.815 150.878 183.923 107.522 183.923H107.493ZM174.444 39.2647C156.382 21.8471 132.632 12 107.368 12C55.2606 12 12.8312 54.1805 12.8016 106.018C12.8016 122.57 17.13 138.719 25.4187 153.013L12 201.709L62.16 188.648C76.0556 196.129 91.5876 200.063 107.374 200.102H107.404C159.541 200.102 201.97 157.921 202 106.048C202 80.9472 192.197 57.3226 174.325 39.567L174.444 39.2647Z" fill="white"/>
</g>
<defs>
<filter id="filter0_f_1_260" x="0" y="0" width="214" height="213.708" filterUnits="userSpaceOnUse" color-interpolation-filters="sRGB">
<feFlood flood-opacity="0" result="BackgroundImageFix"/>
<feBlend mode="normal" in="SourceGraphic" in2="BackgroundImageFix" result="shape"/>
<feGaussianBlur stdDeviation="6" result="effect1_foregroundBlur_1_260"/>
</filter>
</defs>
</svg>
